<svg xmlns="http://www.w3.org/2000/svg" width="780" height="480" viewBox="0 0 780 480"><rect x="0" y="0" width="780" height="480" fill="white"/><line x1="84.00" y1="422.00" x2="612.00" y2="422.00" stroke="#e8e8e8" stroke-width="1"/><text x="76.00" y="426.00" font-family="sans-serif" font-size="11" text-anchor="end" fill="#333">0.0</text><line x1="84.00" y1="48.00" x2="84.00" y2="422.00" stroke="#e8e8e8" stroke-width="1"/><text x="84.00" y="440.00" font-family="sans-serif" font-size="12" text-anchor="middle" fill="#333">0</text><line x1="84.00" y1="347.20" x2="612.00" y2="347.20" stroke="#e8e8e8" stroke-width="1"/><text x="76.00" y="351.20" font-family="sans-serif" font-size="11" text-anchor="end" fill="#333">0.2</text><line x1="189.60" y1="48.00" x2="189.60" y2="422.00" stroke="#e8e8e8" stroke-width="1"/><text x="189.60" y="440.00" font-family="sans-serif" font-size="12" text-anchor="middle" fill="#333">60</text><line x1="84.00" y1="272.40" x2="612.00" y2="272.40" stroke="#e8e8e8" stroke-width="1"/><text x="76.00" y="276.40" font-family="sans-serif" font-size="11" text-anchor="end" fill="#333">0.4</text><line x1="295.20" y1="48.00" x2="295.20" y2="422.00" stroke="#e8e8e8" stroke-width="1"/><text x="295.20" y="440.00" font-family="sans-serif" font-size="12" text-anchor="middle" fill="#333">120</text><line x1="84.00" y1="197.60" x2="612.00" y2="197.60" stroke="#e8e8e8" stroke-width="1"/><text x="76.00" y="201.60" font-family="sans-serif" font-size="11" text-anchor="end" fill="#333">0.6</text><line x1="400.80" y1="48.00" x2="400.80" y2="422.00" stroke="#e8e8e8" stroke-width="1"/><text x="400.80" y="440.00" font-family="sans-serif" font-size="12" text-anchor="middle" fill="#333">180</text><line x1="84.00" y1="122.80" x2="612.00" y2="122.80" stroke="#e8e8e8" stroke-width="1"/><text x="76.00" y="126.80" font-family="sans-serif" font-size="11" text-anchor="end" fill="#333">0.8</text><line x1="506.40" y1="48.00" x2="506.40" y2="422.00" stroke="#e8e8e8" stroke-width="1"/><text x="506.40" y="440.00" font-family="sans-serif" font-size="12" text-anchor="middle" fill="#333">240</text><line x1="84.00" y1="48.00" x2="612.00" y2="48.00" stroke="#e8e8e8" stroke-width="1"/><text x="76.00" y="52.00" font-family="sans-serif" font-size="11" text-anchor="end" fill="#333">1.0</text><line x1="612.00" y1="48.00" x2="612.00" y2="422.00" stroke="#e8e8e8" stroke-width="1"/><text x="612.00" y="440.00" font-family="sans-serif" font-size="12" text-anchor="middle" fill="#333">300</text><polyline points="84.00,48.00 88.40,63.26 92.80,77.90 97.20,91.95 101.60,105.42 106.00,118.34 110.40,130.73 114.80,142.62 119.20,154.02 123.60,164.95 128.00,175.44 132.40,185.51 136.80,195.16 141.20,204.42 145.60,213.29 150.00,221.81 154.40,229.98 158.80,237.82 163.20,245.33 167.60,252.54 172.00,259.46 176.40,266.09 180.80,272.46 185.20,278.56 189.60,284.41 194.00,290.03 198.40,295.41 202.80,300.58 207.20,305.54 211.60,310.29 216.00,314.85 220.40,319.22 224.80,323.41 229.20,327.44 233.60,331.30 238.00,335.00 242.40,338.55 246.80,341.95 251.20,345.22 255.60,348.36 260.00,351.36 264.40,354.24 268.80,357.01 273.20,359.66 277.60,362.20 282.00,364.65 286.40,366.99 290.80,369.23 295.20,371.38 299.60,373.45 304.00,375.43 308.40,377.33 312.80,379.15 317.20,380.90 321.60,382.58 326.00,384.19 330.40,385.73 334.80,387.21 339.20,388.63 343.60,389.99 348.00,391.30 352.40,392.55 356.80,393.75 361.20,394.91 365.60,396.01 370.00,397.07 374.40,398.09 378.80,399.07 383.20,400.00 387.60,400.90 392.00,401.76 396.40,402.59 400.80,403.38 405.20,404.14 409.60,404.87 414.00,405.57 418.40,406.24 422.80,406.88 427.20,407.50 431.60,408.09 436.00,408.66 440.40,409.20 444.80,409.72 449.20,410.23 453.60,410.71 458.00,411.17 462.40,411.61 466.80,412.03 471.20,412.44 475.60,412.83 480.00,413.20 484.40,413.56 488.80,413.91 493.20,414.24 497.60,414.55 502.00,414.86 506.40,415.15 510.80,415.43 515.20,415.70 519.60,415.95 524.00,416.20 528.40,416.44 532.80,416.67 537.20,416.88 541.60,417.09 546.00,417.29 550.40,417.48 554.80,417.67 559.20,417.85 563.60,418.01 568.00,418.18 572.40,418.33 576.80,418.48 581.20,418.63 585.60,418.76 590.00,418.90 594.40,419.02 598.80,419.14 603.20,419.26 607.60,419.37 612.00,419.48 " fill="none" stroke="#d62728" stroke-width="2.2"/><polyline points="84.00,48.00 88.40,62.94 92.80,77.70 97.20,90.67 101.60,103.73 106.00,116.44 110.40,128.78 114.80,142.12 119.20,153.49 123.60,165.17 128.00,176.00 132.40,185.69 136.80,195.54 141.20,204.80 145.60,213.48 150.00,222.28 154.40,230.70 158.80,238.29 163.20,245.73 167.60,253.08 172.00,259.55 176.40,266.30 180.80,273.05 185.20,278.94 189.60,285.15 194.00,290.84 198.40,295.70 202.80,300.52 207.20,305.41 211.60,310.19 216.00,315.00 220.40,319.65 224.80,323.71 229.20,327.71 233.60,331.16 238.00,334.45 242.40,338.13 246.80,341.65 251.20,344.11 255.60,347.42 260.00,350.73 264.40,353.61 268.80,356.48 273.20,359.30 277.60,362.23 282.00,364.74 286.40,367.13 290.80,369.49 295.20,371.62 299.60,373.75 304.00,375.77 308.40,377.70 312.80,379.53 317.20,381.27 321.60,382.99 326.00,384.71 330.40,386.68 334.80,387.95 339.20,389.44 343.60,390.60 348.00,391.87 352.40,393.00 356.80,394.04 361.20,395.26 365.60,396.47 370.00,397.56 374.40,398.48 378.80,399.37 383.20,400.42 387.60,401.22 392.00,402.22 396.40,402.91 400.80,403.80 405.20,404.52 409.60,405.26 414.00,405.96 418.40,406.74 422.80,407.41 427.20,407.92 431.60,408.52 436.00,409.02 440.40,409.49 444.80,410.01 449.20,410.44 453.60,411.04 458.00,411.40 462.40,411.81 466.80,412.35 471.20,412.84 475.60,413.17 480.00,413.59 484.40,413.88 488.80,414.18 493.20,414.54 497.60,414.91 502.00,415.17 506.40,415.38 510.80,415.57 515.20,415.77 519.60,416.07 524.00,416.32 528.40,416.52 532.80,416.73 537.20,416.91 541.60,417.16 546.00,417.25 550.40,417.42 554.80,417.55 559.20,417.74 563.60,417.85 568.00,417.98 572.40,418.15 576.80,418.33 581.20,418.41 585.60,418.73 590.00,418.80 594.40,418.88 598.80,418.95 603.20,419.12 607.60,419.23 612.00,419.29 " fill="none" stroke="#1f77b4" stroke-width="2"/><line x1="84.00" y1="48.00" x2="612.00" y2="48.00" stroke="#333" stroke-width="1"/><line x1="84.00" y1="422.00" x2="612.00" y2="422.00" stroke="#333" stroke-width="1"/><line x1="84.00" y1="48.00" x2="84.00" y2="422.00" stroke="#333" stroke-width="1"/><line x1="612.00" y1="48.00" x2="612.00" y2="422.00" stroke="#333" stroke-width="1"/><line x1="628.00" y1="60.00" x2="650.00" y2="60.00" stroke="#1f77b4" stroke-width="3"/><text x="656.00" y="64.00" font-family="sans-serif" font-size="12" text-anchor="start" fill="#222">simulated</text><line x1="628.00" y1="82.00" x2="650.00" y2="82.00" stroke="#d62728" stroke-width="3"/><text x="656.00" y="86.00" font-family="sans-serif" font-size="12" text-anchor="start" fill="#222">exp(-μz)</text><text x="628.00" y="112.00" font-family="sans-serif" font-size="12" text-anchor="start" fill="#555">μ = 16.7 /m</text><text x="628.00" y="130.00" font-family="sans-serif" font-size="12" text-anchor="start" fill="#555">mfp = 60.0 mm</text><text x="390.00" y="26.00" font-family="sans-serif" font-size="15" text-anchor="middle" fill="#111">Beer–Lambert attenuation: 100 keV photons in water</text><text x="348.00" y="466.00" font-family="sans-serif" font-size="13" text-anchor="middle" fill="#111">Depth of first interaction (mm)</text><text x="20.00" y="235.00" transform="rotate(-90 20.00 235.00)" font-family="sans-serif" font-size="13" text-anchor="middle" fill="#111">Surviving fraction</text></svg>