<svg xmlns="http://www.w3.org/2000/svg" width="780" height="480" viewBox="0 0 780 480"><rect x="0" y="0" width="780" height="480" fill="white"/><line x1="84.00" y1="48.00" x2="84.00" y2="422.00" stroke="#e8e8e8" stroke-width="1"/><text x="84.00" y="440.00" font-family="sans-serif" font-size="12" text-anchor="middle" fill="#333">0.01</text><line x1="260.00" y1="48.00" x2="260.00" y2="422.00" stroke="#e8e8e8" stroke-width="1"/><text x="260.00" y="440.00" font-family="sans-serif" font-size="12" text-anchor="middle" fill="#333">0.1</text><line x1="436.00" y1="48.00" x2="436.00" y2="422.00" stroke="#e8e8e8" stroke-width="1"/><text x="436.00" y="440.00" font-family="sans-serif" font-size="12" text-anchor="middle" fill="#333">1</text><line x1="612.00" y1="48.00" x2="612.00" y2="422.00" stroke="#e8e8e8" stroke-width="1"/><text x="612.00" y="440.00" font-family="sans-serif" font-size="12" text-anchor="middle" fill="#333">10</text><line x1="84.00" y1="422.00" x2="612.00" y2="422.00" stroke="#e8e8e8" stroke-width="1"/><text x="76.00" y="426.00" font-family="sans-serif" font-size="11" text-anchor="end" fill="#333">1e-31</text><line x1="84.00" y1="359.67" x2="612.00" y2="359.67" stroke="#e8e8e8" stroke-width="1"/><text x="76.00" y="363.67" font-family="sans-serif" font-size="11" text-anchor="end" fill="#333">1e-30</text><line x1="84.00" y1="297.33" x2="612.00" y2="297.33" stroke="#e8e8e8" stroke-width="1"/><text x="76.00" y="301.33" font-family="sans-serif" font-size="11" text-anchor="end" fill="#333">1e-29</text><line x1="84.00" y1="235.00" x2="612.00" y2="235.00" stroke="#e8e8e8" stroke-width="1"/><text x="76.00" y="239.00" font-family="sans-serif" font-size="11" text-anchor="end" fill="#333">1e-28</text><line x1="84.00" y1="172.67" x2="612.00" y2="172.67" stroke="#e8e8e8" stroke-width="1"/><text x="76.00" y="176.67" font-family="sans-serif" font-size="11" text-anchor="end" fill="#333">1e-27</text><line x1="84.00" y1="110.33" x2="612.00" y2="110.33" stroke="#e8e8e8" stroke-width="1"/><text x="76.00" y="114.33" font-family="sans-serif" font-size="11" text-anchor="end" fill="#333">1e-26</text><line x1="84.00" y1="48.00" x2="612.00" y2="48.00" stroke="#e8e8e8" stroke-width="1"/><text x="76.00" y="52.00" font-family="sans-serif" font-size="11" text-anchor="end" fill="#333">1e-25</text><line x1="84.00" y1="48.00" x2="612.00" y2="48.00" stroke="#333" stroke-width="1"/><line x1="84.00" y1="422.00" x2="612.00" y2="422.00" stroke="#333" stroke-width="1"/><line x1="84.00" y1="48.00" x2="84.00" y2="422.00" stroke="#333" stroke-width="1"/><line x1="612.00" y1="48.00" x2="612.00" y2="422.00" stroke="#333" stroke-width="1"/><polyline points="84.00,100.32 85.65,102.36 87.30,104.41 88.95,106.45 90.60,108.50 92.25,110.55 93.90,112.59 95.55,114.64 97.20,116.68 98.85,118.73 100.50,120.77 102.15,122.82 103.80,124.86 105.45,126.91 107.10,128.95 108.75,131.00 110.40,133.04 112.05,135.09 113.70,137.13 115.35,139.18 117.00,141.22 118.65,143.27 120.30,145.31 121.95,147.36 123.60,149.40 125.25,151.45 126.90,153.49 128.55,155.54 130.20,157.58 131.85,159.63 133.50,161.67 135.15,163.72 136.80,165.76 138.45,167.81 140.10,169.85 141.75,171.90 143.40,173.94 145.05,175.99 146.70,178.03 148.35,180.08 150.00,182.12 151.65,184.17 153.30,186.21 154.95,188.25 156.60,190.30 158.25,192.34 159.90,194.39 161.55,196.43 163.20,198.48 164.85,200.52 166.50,202.56 168.15,204.61 169.80,206.65 171.45,208.70 173.10,210.74 174.75,212.78 176.40,214.83 178.05,216.87 179.70,218.92 181.35,220.96 183.00,223.00 184.65,225.05 186.30,227.09 187.95,229.13 189.60,231.17 191.25,233.22 192.90,235.26 194.55,237.30 196.20,239.34 197.85,241.39 199.50,243.43 201.15,245.47 202.80,247.51 204.45,249.55 206.10,251.60 207.75,253.64 209.40,255.68 211.05,257.72 212.70,259.76 214.35,261.80 216.00,263.84 217.65,265.88 219.30,267.92 220.95,269.95 222.60,271.99 224.25,274.03 225.90,276.07 227.55,278.10 229.20,280.14 230.85,282.18 232.50,284.21 234.15,286.25 235.80,288.28 237.45,290.32 239.10,292.35 240.75,294.38 242.40,296.41 244.05,298.45 245.70,300.48 247.35,302.50 249.00,304.53 250.65,306.56 252.30,308.59 253.95,310.61 255.60,312.64 257.25,314.66 258.90,316.68 260.55,318.71 262.20,320.73 263.85,322.74 265.50,324.76 267.15,326.78 268.80,328.79 270.45,330.80 272.10,332.81 273.75,334.82 275.40,336.83 277.05,338.83 278.70,340.83 280.35,342.83 282.00,344.83 283.65,346.83 285.30,348.82 286.95,350.81 288.60,352.80 290.25,354.78 291.90,356.76 293.55,358.73 295.20,360.71 296.85,362.68 298.50,364.64 300.15,366.60 301.80,368.56 303.45,370.51 305.10,372.46 306.75,374.40 308.40,376.34 310.05,378.27 311.70,380.19 313.35,382.11 315.00,384.03 316.65,385.93 318.30,387.83 319.95,389.72 321.60,391.61 323.25,393.48 324.90,395.35 326.55,397.21 328.20,399.06 329.85,400.91 331.50,402.74 333.15,404.56 334.80,406.37 336.45,408.17 338.10,409.96 339.75,411.74 341.40,413.51 343.05,415.26 344.70,417.00 346.35,418.73 348.00,420.44 " fill="none" stroke="#d62728" stroke-width="1.8"/><polyline points="84.00,192.81 85.65,192.83 87.30,192.85 88.95,192.87 90.60,192.90 92.25,192.92 93.90,192.94 95.55,192.97 97.20,192.99 98.85,193.02 100.50,193.04 102.15,193.07 103.80,193.10 105.45,193.13 107.10,193.15 108.75,193.18 110.40,193.21 112.05,193.24 113.70,193.27 115.35,193.30 117.00,193.34 118.65,193.37 120.30,193.40 121.95,193.43 123.60,193.47 125.25,193.50 126.90,193.54 128.55,193.58 130.20,193.61 131.85,193.65 133.50,193.69 135.15,193.73 136.80,193.77 138.45,193.81 140.10,193.85 141.75,193.89 143.40,193.94 145.05,193.98 146.70,194.03 148.35,194.07 150.00,194.12 151.65,194.17 153.30,194.21 154.95,194.26 156.60,194.31 158.25,194.37 159.90,194.42 161.55,194.47 163.20,194.52 164.85,194.58 166.50,194.64 168.15,194.69 169.80,194.75 171.45,194.81 173.10,194.87 174.75,194.93 176.40,194.99 178.05,195.06 179.70,195.12 181.35,195.19 183.00,195.25 184.65,195.32 186.30,195.39 187.95,195.46 189.60,195.53 191.25,195.61 192.90,195.68 194.55,195.76 196.20,195.83 197.85,195.91 199.50,195.99 201.15,196.07 202.80,196.15 204.45,196.24 206.10,196.32 207.75,196.41 209.40,196.49 211.05,196.58 212.70,196.67 214.35,196.76 216.00,196.86 217.65,196.95 219.30,197.05 220.95,197.15 222.60,197.24 224.25,197.34 225.90,197.45 227.55,197.55 229.20,197.65 230.85,197.76 232.50,197.87 234.15,197.98 235.80,198.09 237.45,198.20 239.10,198.32 240.75,198.43 242.40,198.55 244.05,198.67 245.70,198.79 247.35,198.91 249.00,199.04 250.65,199.16 252.30,199.29 253.95,199.42 255.60,199.55 257.25,199.68 258.90,199.81 260.55,199.95 262.20,200.09 263.85,200.23 265.50,200.37 267.15,200.51 268.80,200.65 270.45,200.80 272.10,200.95 273.75,201.09 275.40,201.24 277.05,201.40 278.70,201.55 280.35,201.71 282.00,201.86 283.65,202.02 285.30,202.18 286.95,202.34 288.60,202.51 290.25,202.67 291.90,202.84 293.55,203.01 295.20,203.18 296.85,203.35 298.50,203.52 300.15,203.70 301.80,203.88 303.45,204.05 305.10,204.23 306.75,204.42 308.40,204.60 310.05,204.78 311.70,204.97 313.35,205.16 315.00,205.35 316.65,205.54 318.30,205.73 319.95,205.92 321.60,206.12 323.25,206.31 324.90,206.51 326.55,206.71 328.20,206.91 329.85,207.11 331.50,207.32 333.15,207.52 334.80,207.73 336.45,207.93 338.10,208.14 339.75,208.35 341.40,208.57 343.05,208.78 344.70,208.99 346.35,209.21 348.00,209.43 349.65,209.64 351.30,209.86 352.95,210.09 354.60,210.31 356.25,210.53 357.90,210.76 359.55,210.98 361.20,211.21 362.85,211.44 364.50,211.67 366.15,211.90 367.80,212.13 369.45,212.37 371.10,212.60 372.75,212.84 374.40,213.07 376.05,213.31 377.70,213.55 379.35,213.79 381.00,214.04 382.65,214.28 384.30,214.52 385.95,214.77 387.60,215.02 389.25,215.27 390.90,215.51 392.55,215.77 394.20,216.02 395.85,216.27 397.50,216.53 399.15,216.78 400.80,217.04 402.45,217.30 404.10,217.56 405.75,217.82 407.40,218.08 409.05,218.34 410.70,218.61 412.35,218.88 414.00,219.14 415.65,219.41 417.30,219.68 418.95,219.95 420.60,220.23 422.25,220.50 423.90,220.78 425.55,221.05 427.20,221.33 428.85,221.61 430.50,221.89 432.15,222.17 433.80,222.46 435.45,222.74 437.10,223.03 438.75,223.32 440.40,223.61 442.05,223.90 443.70,224.19 445.35,224.48 447.00,224.78 448.65,225.07 450.30,225.37 451.95,225.67 453.60,225.97 455.25,226.27 456.90,226.58 458.55,226.88 460.20,227.19 461.85,227.50 463.50,227.80 465.15,228.12 466.80,228.43 468.45,228.74 470.10,229.06 471.75,229.37 473.40,229.69 475.05,230.01 476.70,230.33 478.35,230.65 480.00,230.98 481.65,231.30 483.30,231.63 484.95,231.96 486.60,232.29 488.25,232.62 489.90,232.95 491.55,233.29 493.20,233.62 494.85,233.96 496.50,234.30 498.15,234.64 499.80,234.98 501.45,235.32 503.10,235.67 504.75,236.01 506.40,236.36 508.05,236.71 509.70,237.06 511.35,237.41 513.00,237.77 514.65,238.12 516.30,238.48 517.95,238.83 519.60,239.19 521.25,239.55 522.90,239.91 524.55,240.28 526.20,240.64 527.85,241.01 529.50,241.37 531.15,241.74 532.80,242.11 534.45,242.48 536.10,242.86 537.75,243.23 539.40,243.61 541.05,243.98 542.70,244.36 544.35,244.74 546.00,245.12 547.65,245.50 549.30,245.88 550.95,246.27 552.60,246.65 554.25,247.04 555.90,247.43 557.55,247.82 559.20,248.21 560.85,248.60 562.50,248.99 564.15,249.39 565.80,249.78 567.45,250.18 569.10,250.58 570.75,250.98 572.40,251.38 574.05,251.78 575.70,252.18 577.35,252.59 579.00,252.99 580.65,253.40 582.30,253.80 583.95,254.21 585.60,254.62 587.25,255.03 588.90,255.44 590.55,255.86 592.20,256.27 593.85,256.68 595.50,257.10 597.15,257.52 598.80,257.93 600.45,258.35 602.10,258.77 603.75,259.19 605.40,259.62 607.05,260.04 608.70,260.46 610.35,260.89 612.00,261.31 " fill="none" stroke="#1f77b4" stroke-width="1.8"/><polyline points="458.55,418.96 460.20,413.44 461.85,408.35 463.50,403.63 465.15,399.24 466.80,395.14 468.45,391.30 470.10,387.68 471.75,384.26 473.40,381.04 475.05,377.98 476.70,375.07 478.35,372.30 480.00,369.66 481.65,367.14 483.30,364.73 484.95,362.43 486.60,360.21 488.25,358.08 489.90,356.04 491.55,354.07 493.20,352.17 494.85,350.34 496.50,348.57 498.15,346.87 499.80,345.21 501.45,343.62 503.10,342.07 504.75,340.57 506.40,339.11 508.05,337.70 509.70,336.32 511.35,334.99 513.00,333.69 514.65,332.43 516.30,331.20 517.95,330.01 519.60,328.84 521.25,327.70 522.90,326.59 524.55,325.51 526.20,324.46 527.85,323.42 529.50,322.42 531.15,321.43 532.80,320.47 534.45,319.53 536.10,318.61 537.75,317.71 539.40,316.82 541.05,315.96 542.70,315.11 544.35,314.28 546.00,313.47 547.65,312.68 549.30,311.89 550.95,311.13 552.60,310.38 554.25,309.64 555.90,308.92 557.55,308.21 559.20,307.51 560.85,306.82 562.50,306.15 564.15,305.49 565.80,304.84 567.45,304.20 569.10,303.57 570.75,302.96 572.40,302.35 574.05,301.75 575.70,301.17 577.35,300.59 579.00,300.02 580.65,299.46 582.30,298.91 583.95,298.37 585.60,297.84 587.25,297.31 588.90,296.80 590.55,296.29 592.20,295.79 593.85,295.29 595.50,294.81 597.15,294.33 598.80,293.86 600.45,293.39 602.10,292.93 603.75,292.48 605.40,292.03 607.05,291.60 608.70,291.16 610.35,290.74 612.00,290.32 " fill="none" stroke="#2ca02c" stroke-width="1.8"/><polyline points="84.00,99.44 85.65,101.42 87.30,103.40 88.95,105.36 90.60,107.33 92.25,109.28 93.90,111.23 95.55,113.18 97.20,115.11 98.85,117.04 100.50,118.96 102.15,120.87 103.80,122.77 105.45,124.66 107.10,126.54 108.75,128.40 110.40,130.26 112.05,132.10 113.70,133.93 115.35,135.74 117.00,137.54 118.65,139.32 120.30,141.08 121.95,142.82 123.60,144.55 125.25,146.25 126.90,147.94 128.55,149.60 130.20,151.24 131.85,152.85 133.50,154.44 135.15,156.00 136.80,157.53 138.45,159.04 140.10,160.51 141.75,161.96 143.40,163.37 145.05,164.75 146.70,166.10 148.35,167.42 150.00,168.70 151.65,169.94 153.30,171.15 154.95,172.33 156.60,173.47 158.25,174.57 159.90,175.64 161.55,176.67 163.20,177.66 164.85,178.62 166.50,179.55 168.15,180.44 169.80,181.29 171.45,182.11 173.10,182.89 174.75,183.65 176.40,184.37 178.05,185.06 179.70,185.72 181.35,186.35 183.00,186.95 184.65,187.53 186.30,188.08 187.95,188.60 189.60,189.11 191.25,189.58 192.90,190.04 194.55,190.47 196.20,190.89 197.85,191.28 199.50,191.66 201.15,192.02 202.80,192.37 204.45,192.70 206.10,193.02 207.75,193.32 209.40,193.61 211.05,193.89 212.70,194.16 214.35,194.42 216.00,194.67 217.65,194.91 219.30,195.14 220.95,195.37 222.60,195.58 224.25,195.80 225.90,196.00 227.55,196.20 229.20,196.40 230.85,196.59 232.50,196.78 234.15,196.96 235.80,197.14 237.45,197.32 239.10,197.49 240.75,197.66 242.40,197.83 244.05,198.00 245.70,198.16 247.35,198.33 249.00,198.49 250.65,198.65 252.30,198.82 253.95,198.98 255.60,199.14 257.25,199.30 258.90,199.46 260.55,199.62 262.20,199.77 263.85,199.93 265.50,200.09 267.15,200.25 268.80,200.42 270.45,200.58 272.10,200.74 273.75,200.90 275.40,201.06 277.05,201.23 278.70,201.39 280.35,201.56 282.00,201.73 283.65,201.89 285.30,202.06 286.95,202.23 288.60,202.40 290.25,202.58 291.90,202.75 293.55,202.92 295.20,203.10 296.85,203.28 298.50,203.45 300.15,203.63 301.80,203.81 303.45,204.00 305.10,204.18 306.75,204.37 308.40,204.55 310.05,204.74 311.70,204.93 313.35,205.12 315.00,205.31 316.65,205.50 318.30,205.70 319.95,205.89 321.60,206.09 323.25,206.29 324.90,206.49 326.55,206.69 328.20,206.89 329.85,207.09 331.50,207.30 333.15,207.50 334.80,207.71 336.45,207.92 338.10,208.13 339.75,208.34 341.40,208.55 343.05,208.77 344.70,208.98 346.35,209.20 348.00,209.42 349.65,209.63 351.30,209.85 352.95,210.08 354.60,210.30 356.25,210.52 357.90,210.75 359.55,210.97 361.20,211.20 362.85,211.43 364.50,211.66 366.15,211.89 367.80,212.13 369.45,212.36 371.10,212.59 372.75,212.83 374.40,213.07 376.05,213.31 377.70,213.55 379.35,213.79 381.00,214.03 382.65,214.27 384.30,214.52 385.95,214.77 387.60,215.01 389.25,215.26 390.90,215.51 392.55,215.76 394.20,216.01 395.85,216.27 397.50,216.52 399.15,216.78 400.80,217.04 402.45,217.30 404.10,217.56 405.75,217.82 407.40,218.08 409.05,218.34 410.70,218.61 412.35,218.87 414.00,219.14 415.65,219.41 417.30,219.68 418.95,219.95 420.60,220.22 422.25,220.50 423.90,220.77 425.55,221.05 427.20,221.33 428.85,221.61 430.50,221.89 432.15,222.17 433.80,222.46 435.45,222.74 437.10,223.03 438.75,223.32 440.40,223.60 442.05,223.89 443.70,224.19 445.35,224.48 447.00,224.77 448.65,225.07 450.30,225.36 451.95,225.66 453.60,225.96 455.25,226.26 456.90,226.56 458.55,226.86 460.20,227.16 461.85,227.46 463.50,227.76 465.15,228.07 466.80,228.37 468.45,228.67 470.10,228.98 471.75,229.28 473.40,229.59 475.05,229.89 476.70,230.20 478.35,230.51 480.00,230.82 481.65,231.12 483.30,231.43 484.95,231.74 486.60,232.05 488.25,232.36 489.90,232.67 491.55,232.98 493.20,233.28 494.85,233.59 496.50,233.90 498.15,234.21 499.80,234.52 501.45,234.83 503.10,235.14 504.75,235.45 506.40,235.76 508.05,236.07 509.70,236.38 511.35,236.68 513.00,236.99 514.65,237.30 516.30,237.61 517.95,237.91 519.60,238.22 521.25,238.53 522.90,238.83 524.55,239.14 526.20,239.44 527.85,239.75 529.50,240.05 531.15,240.35 532.80,240.65 534.45,240.95 536.10,241.25 537.75,241.55 539.40,241.85 541.05,242.15 542.70,242.44 544.35,242.74 546.00,243.03 547.65,243.33 549.30,243.62 550.95,243.91 552.60,244.20 554.25,244.48 555.90,244.77 557.55,245.05 559.20,245.34 560.85,245.62 562.50,245.90 564.15,246.18 565.80,246.45 567.45,246.73 569.10,247.00 570.75,247.27 572.40,247.54 574.05,247.81 575.70,248.08 577.35,248.34 579.00,248.60 580.65,248.86 582.30,249.12 583.95,249.37 585.60,249.63 587.25,249.88 588.90,250.12 590.55,250.37 592.20,250.61 593.85,250.86 595.50,251.09 597.15,251.33 598.80,251.56 600.45,251.79 602.10,252.02 603.75,252.25 605.40,252.47 607.05,252.69 608.70,252.91 610.35,253.13 612.00,253.34 " fill="none" stroke="#000000" stroke-width="2.4"/><line x1="437.66" y1="48.00" x2="437.66" y2="422.00" stroke="#2ca02c" stroke-width="0.8"/><text x="440.66" y="416.00" font-family="sans-serif" font-size="10" text-anchor="start" fill="#2ca02c">pair threshold</text><line x1="628.00" y1="60.00" x2="650.00" y2="60.00" stroke="#d62728" stroke-width="3"/><text x="656.00" y="64.00" font-family="sans-serif" font-size="12" text-anchor="start" fill="#222">photoelectric</text><line x1="628.00" y1="82.00" x2="650.00" y2="82.00" stroke="#1f77b4" stroke-width="3"/><text x="656.00" y="86.00" font-family="sans-serif" font-size="12" text-anchor="start" fill="#222">Compton</text><line x1="628.00" y1="104.00" x2="650.00" y2="104.00" stroke="#2ca02c" stroke-width="3"/><text x="656.00" y="108.00" font-family="sans-serif" font-size="12" text-anchor="start" fill="#222">pair production</text><line x1="628.00" y1="126.00" x2="650.00" y2="126.00" stroke="#000000" stroke-width="3"/><text x="656.00" y="130.00" font-family="sans-serif" font-size="12" text-anchor="start" fill="#222">total</text><text x="390.00" y="26.00" font-family="sans-serif" font-size="16" text-anchor="middle" fill="#111">Photon cross-sections in water (per atom)</text><text x="348.00" y="466.00" font-family="sans-serif" font-size="13" text-anchor="middle" fill="#111">Energy (MeV)</text><text x="20.00" y="235.00" transform="rotate(-90 20.00 235.00)" font-family="sans-serif" font-size="13" text-anchor="middle" fill="#111">Cross-section (m² / atom)</text></svg>