<svg xmlns="http://www.w3.org/2000/svg" width="780" height="480" viewBox="0 0 780 480"><rect x="0" y="0" width="780" height="480" fill="white"/><line x1="84.00" y1="48.00" x2="84.00" y2="422.00" stroke="#e8e8e8" stroke-width="1"/><text x="84.00" y="440.00" font-family="sans-serif" font-size="12" text-anchor="middle" fill="#333">0.01</text><line x1="260.00" y1="48.00" x2="260.00" y2="422.00" stroke="#e8e8e8" stroke-width="1"/><text x="260.00" y="440.00" font-family="sans-serif" font-size="12" text-anchor="middle" fill="#333">0.1</text><line x1="436.00" y1="48.00" x2="436.00" y2="422.00" stroke="#e8e8e8" stroke-width="1"/><text x="436.00" y="440.00" font-family="sans-serif" font-size="12" text-anchor="middle" fill="#333">1</text><line x1="612.00" y1="48.00" x2="612.00" y2="422.00" stroke="#e8e8e8" stroke-width="1"/><text x="612.00" y="440.00" font-family="sans-serif" font-size="12" text-anchor="middle" fill="#333">10</text><line x1="84.00" y1="422.00" x2="612.00" y2="422.00" stroke="#e8e8e8" stroke-width="1"/><text x="76.00" y="426.00" font-family="sans-serif" font-size="11" text-anchor="end" fill="#333">1e-27</text><line x1="84.00" y1="359.67" x2="612.00" y2="359.67" stroke="#e8e8e8" stroke-width="1"/><text x="76.00" y="363.67" font-family="sans-serif" font-size="11" text-anchor="end" fill="#333">1e-26</text><line x1="84.00" y1="297.33" x2="612.00" y2="297.33" stroke="#e8e8e8" stroke-width="1"/><text x="76.00" y="301.33" font-family="sans-serif" font-size="11" text-anchor="end" fill="#333">1e-25</text><line x1="84.00" y1="235.00" x2="612.00" y2="235.00" stroke="#e8e8e8" stroke-width="1"/><text x="76.00" y="239.00" font-family="sans-serif" font-size="11" text-anchor="end" fill="#333">1e-24</text><line x1="84.00" y1="172.67" x2="612.00" y2="172.67" stroke="#e8e8e8" stroke-width="1"/><text x="76.00" y="176.67" font-family="sans-serif" font-size="11" text-anchor="end" fill="#333">1e-23</text><line x1="84.00" y1="110.33" x2="612.00" y2="110.33" stroke="#e8e8e8" stroke-width="1"/><text x="76.00" y="114.33" font-family="sans-serif" font-size="11" text-anchor="end" fill="#333">1e-22</text><line x1="84.00" y1="48.00" x2="612.00" y2="48.00" stroke="#e8e8e8" stroke-width="1"/><text x="76.00" y="52.00" font-family="sans-serif" font-size="11" text-anchor="end" fill="#333">1e-21</text><line x1="84.00" y1="48.00" x2="612.00" y2="48.00" stroke="#333" stroke-width="1"/><line x1="84.00" y1="422.00" x2="612.00" y2="422.00" stroke="#333" stroke-width="1"/><line x1="84.00" y1="48.00" x2="84.00" y2="422.00" stroke="#333" stroke-width="1"/><line x1="612.00" y1="48.00" x2="612.00" y2="422.00" stroke="#333" stroke-width="1"/><polyline points="84.00,100.55 85.65,102.59 87.30,104.64 88.95,106.68 90.60,108.73 92.25,110.77 93.90,112.82 95.55,114.86 97.20,116.91 98.85,118.95 100.50,121.00 102.15,123.04 103.80,125.09 105.45,127.13 107.10,129.18 108.75,131.22 110.40,133.27 112.05,135.31 113.70,137.36 115.35,139.40 117.00,141.45 118.65,143.49 120.30,145.54 121.95,147.58 123.60,149.63 125.25,151.67 126.90,153.72 128.55,155.76 130.20,157.81 131.85,159.85 133.50,161.90 135.15,163.94 136.80,165.99 138.45,168.03 140.10,170.08 141.75,172.12 143.40,174.17 145.05,176.21 146.70,178.26 148.35,180.30 150.00,182.35 151.65,184.39 153.30,186.44 154.95,188.48 156.60,190.52 158.25,192.57 159.90,194.61 161.55,196.66 163.20,198.70 164.85,200.75 166.50,202.79 168.15,204.83 169.80,206.88 171.45,208.92 173.10,210.97 174.75,213.01 176.40,215.05 178.05,217.10 179.70,219.14 181.35,221.18 183.00,223.23 184.65,225.27 186.30,227.31 187.95,229.36 189.60,231.40 191.25,233.44 192.90,235.49 194.55,237.53 196.20,239.57 197.85,241.61 199.50,243.66 201.15,245.70 202.80,247.74 204.45,249.78 206.10,251.82 207.75,253.86 209.40,255.90 211.05,257.94 212.70,259.98 214.35,262.02 216.00,264.06 217.65,266.10 219.30,268.14 220.95,270.18 222.60,272.22 224.25,274.26 225.90,276.29 227.55,278.33 229.20,280.37 230.85,282.40 232.50,284.44 234.15,286.47 235.80,288.51 237.45,290.54 239.10,292.58 240.75,294.61 242.40,296.64 244.05,298.67 245.70,300.70 247.35,302.73 249.00,304.76 250.65,306.79 251.28,307.56 251.37,264.10 252.30,265.25 253.95,267.27 255.60,269.30 257.25,271.32 258.90,273.34 260.55,275.36 262.20,277.38 263.85,279.40 265.50,281.42 267.15,283.43 268.80,285.45 270.45,287.46 272.10,289.47 273.75,291.48 275.40,293.49 277.05,295.49 278.70,297.49 280.35,299.49 282.00,301.49 283.65,303.48 285.30,305.48 286.95,307.47 288.60,309.45 290.25,311.44 291.90,313.42 293.55,315.39 295.20,317.36 296.85,319.33 298.50,321.30 300.15,323.26 301.80,325.22 303.45,327.17 305.10,329.12 306.75,331.06 308.40,332.99 310.05,334.93 311.70,336.85 313.35,338.77 315.00,340.68 316.65,342.59 318.30,344.49 319.95,346.38 321.60,348.26 323.25,350.14 324.90,352.01 326.55,353.87 328.20,355.72 329.85,357.56 331.50,359.39 333.15,361.22 334.80,363.03 336.45,364.83 338.10,366.62 339.75,368.40 341.40,370.16 343.05,371.92 344.70,373.66 346.35,375.38 348.00,377.10 349.65,378.80 351.30,380.48 352.95,382.15 354.60,383.81 356.25,385.45 357.90,387.07 359.55,388.68 361.20,390.27 362.85,391.85 364.50,393.40 366.15,394.94 367.80,396.46 369.45,397.96 371.10,399.45 372.75,400.91 374.40,402.36 376.05,403.79 377.70,405.19 379.35,406.58 381.00,407.95 382.65,409.30 384.30,410.63 385.95,411.94 387.60,413.23 389.25,414.50 390.90,415.75 392.55,416.98 394.20,418.19 395.85,419.38 397.50,420.56 399.15,421.71 " fill="none" stroke="#d62728" stroke-width="1.8"/><polyline points="84.00,377.10 85.65,377.12 87.30,377.14 88.95,377.17 90.60,377.19 92.25,377.21 93.90,377.24 95.55,377.26 97.20,377.29 98.85,377.31 100.50,377.34 102.15,377.37 103.80,377.39 105.45,377.42 107.10,377.45 108.75,377.48 110.40,377.51 112.05,377.54 113.70,377.57 115.35,377.60 117.00,377.63 118.65,377.66 120.30,377.70 121.95,377.73 123.60,377.76 125.25,377.80 126.90,377.83 128.55,377.87 130.20,377.91 131.85,377.95 133.50,377.98 135.15,378.02 136.80,378.06 138.45,378.10 140.10,378.15 141.75,378.19 143.40,378.23 145.05,378.28 146.70,378.32 148.35,378.37 150.00,378.41 151.65,378.46 153.30,378.51 154.95,378.56 156.60,378.61 158.25,378.66 159.90,378.71 161.55,378.76 163.20,378.82 164.85,378.87 166.50,378.93 168.15,378.99 169.80,379.05 171.45,379.10 173.10,379.16 174.75,379.23 176.40,379.29 178.05,379.35 179.70,379.42 181.35,379.48 183.00,379.55 184.65,379.62 186.30,379.69 187.95,379.76 189.60,379.83 191.25,379.90 192.90,379.98 194.55,380.05 196.20,380.13 197.85,380.21 199.50,380.28 201.15,380.37 202.80,380.45 204.45,380.53 206.10,380.61 207.75,380.70 209.40,380.79 211.05,380.88 212.70,380.97 214.35,381.06 216.00,381.15 217.65,381.25 219.30,381.34 220.95,381.44 222.60,381.54 224.25,381.64 225.90,381.74 227.55,381.84 229.20,381.95 230.85,382.05 232.50,382.16 234.15,382.27 235.80,382.38 237.45,382.50 239.10,382.61 240.75,382.73 242.40,382.84 244.05,382.96 245.70,383.08 247.35,383.21 249.00,383.33 250.65,383.46 251.28,383.50 251.37,383.51 252.30,383.58 253.95,383.71 255.60,383.84 257.25,383.97 258.90,384.11 260.55,384.24 262.20,384.38 263.85,384.52 265.50,384.66 267.15,384.80 268.80,384.95 270.45,385.09 272.10,385.24 273.75,385.39 275.40,385.54 277.05,385.69 278.70,385.84 280.35,386.00 282.00,386.16 283.65,386.32 285.30,386.48 286.95,386.64 288.60,386.80 290.25,386.97 291.90,387.13 293.55,387.30 295.20,387.47 296.85,387.65 298.50,387.82 300.15,387.99 301.80,388.17 303.45,388.35 305.10,388.53 306.75,388.71 308.40,388.89 310.05,389.08 311.70,389.26 313.35,389.45 315.00,389.64 316.65,389.83 318.30,390.02 319.95,390.22 321.60,390.41 323.25,390.61 324.90,390.80 326.55,391.00 328.20,391.20 329.85,391.41 331.50,391.61 333.15,391.82 334.80,392.02 336.45,392.23 338.10,392.44 339.75,392.65 341.40,392.86 343.05,393.07 344.70,393.29 346.35,393.50 348.00,393.72 349.65,393.94 351.30,394.16 352.95,394.38 354.60,394.60 356.25,394.83 357.90,395.05 359.55,395.28 361.20,395.50 362.85,395.73 364.50,395.96 366.15,396.19 367.80,396.43 369.45,396.66 371.10,396.89 372.75,397.13 374.40,397.37 376.05,397.61 377.70,397.85 379.35,398.09 381.00,398.33 382.65,398.57 384.30,398.82 385.95,399.06 387.60,399.31 389.25,399.56 390.90,399.81 392.55,400.06 394.20,400.31 395.85,400.57 397.50,400.82 399.15,401.08 400.80,401.33 402.45,401.59 404.10,401.85 405.75,402.11 407.40,402.38 409.05,402.64 410.70,402.90 412.35,403.17 414.00,403.44 415.65,403.71 417.30,403.98 418.95,404.25 420.60,404.52 422.25,404.79 423.90,405.07 425.55,405.35 427.20,405.63 428.85,405.90 430.50,406.19 432.15,406.47 433.80,406.75 435.45,407.04 437.10,407.32 438.75,407.61 440.40,407.90 442.05,408.19 443.70,408.48 445.35,408.78 447.00,409.07 448.65,409.37 450.30,409.66 451.95,409.96 453.60,410.26 455.25,410.57 456.90,410.87 458.55,411.17 460.20,411.48 461.85,411.79 463.50,412.10 465.15,412.41 466.80,412.72 468.45,413.03 470.10,413.35 471.75,413.67 473.40,413.98 475.05,414.30 476.70,414.63 478.35,414.95 480.00,415.27 481.65,415.60 483.30,415.92 484.95,416.25 486.60,416.58 488.25,416.91 489.90,417.25 491.55,417.58 493.20,417.92 494.85,418.25 496.50,418.59 498.15,418.93 499.80,419.27 501.45,419.62 503.10,419.96 504.75,420.31 506.40,420.66 508.05,421.00 509.70,421.35 511.35,421.71 " fill="none" stroke="#1f77b4" stroke-width="1.8"/><polyline points="580.65,421.81 582.30,421.26 583.95,420.72 585.60,420.19 587.25,419.66 588.90,419.15 590.55,418.64 592.20,418.14 593.85,417.64 595.50,417.16 597.15,416.68 598.80,416.20 600.45,415.74 602.10,415.28 603.75,414.83 605.40,414.38 607.05,413.95 608.70,413.51 610.35,413.09 612.00,412.66 " fill="none" stroke="#2ca02c" stroke-width="1.8"/><polyline points="84.00,100.54 85.65,102.59 87.30,104.63 88.95,106.68 90.60,108.72 92.25,110.77 93.90,112.81 95.55,114.86 97.20,116.90 98.85,118.95 100.50,121.00 102.15,123.04 103.80,125.09 105.45,127.13 107.10,129.17 108.75,131.22 110.40,133.26 112.05,135.31 113.70,137.35 115.35,139.40 117.00,141.44 118.65,143.49 120.30,145.53 121.95,147.58 123.60,149.62 125.25,151.67 126.90,153.71 128.55,155.76 130.20,157.80 131.85,159.85 133.50,161.89 135.15,163.93 136.80,165.98 138.45,168.02 140.10,170.07 141.75,172.11 143.40,174.15 145.05,176.20 146.70,178.24 148.35,180.28 150.00,182.33 151.65,184.37 153.30,186.41 154.95,188.46 156.60,190.50 158.25,192.54 159.90,194.58 161.55,196.63 163.20,198.67 164.85,200.71 166.50,202.75 168.15,204.79 169.80,206.83 171.45,208.87 173.10,210.91 174.75,212.95 176.40,214.99 178.05,217.03 179.70,219.07 181.35,221.11 183.00,223.14 184.65,225.18 186.30,227.22 187.95,229.25 189.60,231.29 191.25,233.32 192.90,235.36 194.55,237.39 196.20,239.42 197.85,241.45 199.50,243.48 201.15,245.51 202.80,247.54 204.45,249.56 206.10,251.59 207.75,253.61 209.40,255.64 211.05,257.66 212.70,259.68 214.35,261.69 216.00,263.71 217.65,265.72 219.30,267.73 220.95,269.74 222.60,271.75 224.25,273.75 225.90,275.75 227.55,277.75 229.20,279.74 230.85,281.73 232.50,283.72 234.15,285.70 235.80,287.68 237.45,289.65 239.10,291.62 240.75,293.58 242.40,295.54 244.05,297.49 245.70,299.44 247.35,301.38 249.00,303.31 250.65,305.24 251.28,305.97 251.37,263.77 252.30,264.91 253.95,266.91 255.60,268.91 257.25,270.90 258.90,272.89 260.55,274.88 262.20,276.87 263.85,278.85 265.50,280.83 267.15,282.80 268.80,284.77 270.45,286.73 272.10,288.69 273.75,290.65 275.40,292.60 277.05,294.54 278.70,296.48 280.35,298.41 282.00,300.33 283.65,302.24 285.30,304.15 286.95,306.05 288.60,307.94 290.25,309.82 291.90,311.69 293.55,313.56 295.20,315.41 296.85,317.25 298.50,319.07 300.15,320.89 301.80,322.69 303.45,324.48 305.10,326.26 306.75,328.02 308.40,329.76 310.05,331.49 311.70,333.20 313.35,334.90 315.00,336.57 316.65,338.23 318.30,339.87 319.95,341.49 321.60,343.09 323.25,344.66 324.90,346.22 326.55,347.75 328.20,349.26 329.85,350.74 331.50,352.20 333.15,353.64 334.80,355.05 336.45,356.44 338.10,357.80 339.75,359.13 341.40,360.43 343.05,361.71 344.70,362.97 346.35,364.19 348.00,365.39 349.65,366.56 351.30,367.70 352.95,368.82 354.60,369.91 356.25,370.97 357.90,372.01 359.55,373.01 361.20,374.00 362.85,374.96 364.50,375.89 366.15,376.80 367.80,377.68 369.45,378.54 371.10,379.38 372.75,380.19 374.40,380.98 376.05,381.76 377.70,382.51 379.35,383.24 381.00,383.95 382.65,384.64 384.30,385.32 385.95,385.98 387.60,386.62 389.25,387.25 390.90,387.86 392.55,388.45 394.20,389.04 395.85,389.61 397.50,390.16 399.15,390.71 400.80,391.24 402.45,391.77 404.10,392.28 405.75,392.78 407.40,393.28 409.05,393.76 410.70,394.24 412.35,394.71 414.00,395.17 415.65,395.62 417.30,396.07 418.95,396.51 420.60,396.95 422.25,397.38 423.90,397.80 425.55,398.23 427.20,398.64 428.85,399.05 430.50,399.46 432.15,399.87 433.80,400.27 435.45,400.67 437.10,401.06 438.75,401.46 440.40,401.85 442.05,402.24 443.70,402.62 445.35,403.00 447.00,403.37 448.65,403.74 450.30,404.11 451.95,404.47 453.60,404.82 455.25,405.17 456.90,405.52 458.55,405.85 460.20,406.18 461.85,406.51 463.50,406.82 465.15,407.13 466.80,407.43 468.45,407.73 470.10,408.01 471.75,408.29 473.40,408.56 475.05,408.83 476.70,409.08 478.35,409.32 480.00,409.56 481.65,409.79 483.30,410.01 484.95,410.22 486.60,410.42 488.25,410.61 489.90,410.80 491.55,410.97 493.20,411.14 494.85,411.29 496.50,411.44 498.15,411.58 499.80,411.71 501.45,411.83 503.10,411.94 504.75,412.04 506.40,412.14 508.05,412.22 509.70,412.29 511.35,412.36 513.00,412.42 514.65,412.47 516.30,412.51 517.95,412.54 519.60,412.56 521.25,412.58 522.90,412.58 524.55,412.58 526.20,412.57 527.85,412.56 529.50,412.53 531.15,412.50 532.80,412.46 534.45,412.41 536.10,412.36 537.75,412.30 539.40,412.23 541.05,412.16 542.70,412.08 544.35,411.99 546.00,411.90 547.65,411.80 549.30,411.70 550.95,411.59 552.60,411.47 554.25,411.35 555.90,411.23 557.55,411.10 559.20,410.96 560.85,410.82 562.50,410.68 564.15,410.53 565.80,410.38 567.45,410.22 569.10,410.06 570.75,409.90 572.40,409.73 574.05,409.56 575.70,409.39 577.35,409.21 579.00,409.04 580.65,408.85 582.30,408.67 583.95,408.48 585.60,408.30 587.25,408.11 588.90,407.91 590.55,407.72 592.20,407.52 593.85,407.33 595.50,407.13 597.15,406.93 598.80,406.73 600.45,406.52 602.10,406.32 603.75,406.11 605.40,405.91 607.05,405.70 608.70,405.49 610.35,405.29 612.00,405.08 " fill="none" stroke="#000000" stroke-width="2.4"/><line x1="437.66" y1="48.00" x2="437.66" y2="422.00" stroke="#2ca02c" stroke-width="0.8"/><text x="440.66" y="416.00" font-family="sans-serif" font-size="10" text-anchor="start" fill="#2ca02c">pair threshold</text><line x1="628.00" y1="60.00" x2="650.00" y2="60.00" stroke="#d62728" stroke-width="3"/><text x="656.00" y="64.00" font-family="sans-serif" font-size="12" text-anchor="start" fill="#222">photoelectric</text><line x1="628.00" y1="82.00" x2="650.00" y2="82.00" stroke="#1f77b4" stroke-width="3"/><text x="656.00" y="86.00" font-family="sans-serif" font-size="12" text-anchor="start" fill="#222">Compton</text><line x1="628.00" y1="104.00" x2="650.00" y2="104.00" stroke="#2ca02c" stroke-width="3"/><text x="656.00" y="108.00" font-family="sans-serif" font-size="12" text-anchor="start" fill="#222">pair production</text><line x1="628.00" y1="126.00" x2="650.00" y2="126.00" stroke="#000000" stroke-width="3"/><text x="656.00" y="130.00" font-family="sans-serif" font-size="12" text-anchor="start" fill="#222">total</text><text x="628.00" y="160.00" font-family="sans-serif" font-size="12" text-anchor="start" fill="#d62728">K edge</text><text x="628.00" y="176.00" font-family="sans-serif" font-size="12" text-anchor="start" fill="#555">89 keV</text><text x="390.00" y="26.00" font-family="sans-serif" font-size="16" text-anchor="middle" fill="#111">Photon cross-sections in lead (per atom)</text><text x="348.00" y="466.00" font-family="sans-serif" font-size="13" text-anchor="middle" fill="#111">Energy (MeV)</text><text x="20.00" y="235.00" transform="rotate(-90 20.00 235.00)" font-family="sans-serif" font-size="13" text-anchor="middle" fill="#111">Cross-section (m² / atom)</text></svg>