<svg xmlns="http://www.w3.org/2000/svg" width="780" height="480" viewBox="0 0 780 480"><rect x="0" y="0" width="780" height="480" fill="white"/><line x1="84.00" y1="422.00" x2="612.00" y2="422.00" stroke="#e8e8e8" stroke-width="1"/><text x="76.00" y="426.00" font-family="sans-serif" font-size="11" text-anchor="end" fill="#333">0.0</text><line x1="84.00" y1="347.20" x2="612.00" y2="347.20" stroke="#e8e8e8" stroke-width="1"/><text x="76.00" y="351.20" font-family="sans-serif" font-size="11" text-anchor="end" fill="#333">0.2</text><line x1="84.00" y1="272.40" x2="612.00" y2="272.40" stroke="#e8e8e8" stroke-width="1"/><text x="76.00" y="276.40" font-family="sans-serif" font-size="11" text-anchor="end" fill="#333">0.4</text><line x1="84.00" y1="197.60" x2="612.00" y2="197.60" stroke="#e8e8e8" stroke-width="1"/><text x="76.00" y="201.60" font-family="sans-serif" font-size="11" text-anchor="end" fill="#333">0.6</text><line x1="84.00" y1="122.80" x2="612.00" y2="122.80" stroke="#e8e8e8" stroke-width="1"/><text x="76.00" y="126.80" font-family="sans-serif" font-size="11" text-anchor="end" fill="#333">0.8</text><line x1="84.00" y1="48.00" x2="612.00" y2="48.00" stroke="#e8e8e8" stroke-width="1"/><text x="76.00" y="52.00" font-family="sans-serif" font-size="11" text-anchor="end" fill="#333">1.0</text><line x1="84.00" y1="48.00" x2="84.00" y2="422.00" stroke="#e8e8e8" stroke-width="1"/><text x="84.00" y="440.00" font-family="sans-serif" font-size="12" text-anchor="middle" fill="#333">0</text><line x1="136.80" y1="48.00" x2="136.80" y2="422.00" stroke="#e8e8e8" stroke-width="1"/><text x="136.80" y="440.00" font-family="sans-serif" font-size="12" text-anchor="middle" fill="#333">1</text><line x1="189.60" y1="48.00" x2="189.60" y2="422.00" stroke="#e8e8e8" stroke-width="1"/><text x="189.60" y="440.00" font-family="sans-serif" font-size="12" text-anchor="middle" fill="#333">2</text><line x1="242.40" y1="48.00" x2="242.40" y2="422.00" stroke="#e8e8e8" stroke-width="1"/><text x="242.40" y="440.00" font-family="sans-serif" font-size="12" text-anchor="middle" fill="#333">3</text><line x1="295.20" y1="48.00" x2="295.20" y2="422.00" stroke="#e8e8e8" stroke-width="1"/><text x="295.20" y="440.00" font-family="sans-serif" font-size="12" text-anchor="middle" fill="#333">4</text><line x1="348.00" y1="48.00" x2="348.00" y2="422.00" stroke="#e8e8e8" stroke-width="1"/><text x="348.00" y="440.00" font-family="sans-serif" font-size="12" text-anchor="middle" fill="#333">5</text><line x1="400.80" y1="48.00" x2="400.80" y2="422.00" stroke="#e8e8e8" stroke-width="1"/><text x="400.80" y="440.00" font-family="sans-serif" font-size="12" text-anchor="middle" fill="#333">6</text><line x1="453.60" y1="48.00" x2="453.60" y2="422.00" stroke="#e8e8e8" stroke-width="1"/><text x="453.60" y="440.00" font-family="sans-serif" font-size="12" text-anchor="middle" fill="#333">7</text><line x1="506.40" y1="48.00" x2="506.40" y2="422.00" stroke="#e8e8e8" stroke-width="1"/><text x="506.40" y="440.00" font-family="sans-serif" font-size="12" text-anchor="middle" fill="#333">8</text><line x1="559.20" y1="48.00" x2="559.20" y2="422.00" stroke="#e8e8e8" stroke-width="1"/><text x="559.20" y="440.00" font-family="sans-serif" font-size="12" text-anchor="middle" fill="#333">9</text><line x1="612.00" y1="48.00" x2="612.00" y2="422.00" stroke="#e8e8e8" stroke-width="1"/><text x="612.00" y="440.00" font-family="sans-serif" font-size="12" text-anchor="middle" fill="#333">10</text><polyline points="110.40,48.00 163.20,105.45 216.00,154.08 268.80,195.23 321.60,230.07 374.40,259.55 427.20,284.51 480.00,305.63 532.80,323.50 585.60,338.63 " fill="none" stroke="#d62728" stroke-width="2.2"/><polyline points="110.40,48.00 163.20,67.12 216.00,85.51 268.80,109.13 321.60,127.14 374.40,168.91 427.20,204.90 480.00,235.16 532.80,266.30 585.60,294.03 " fill="none" stroke="#1f77b4" stroke-width="2"/><rect x="108.40" y="46.00" width="4.00" height="4.00" fill="#1f77b4"/><rect x="161.20" y="65.12" width="4.00" height="4.00" fill="#1f77b4"/><rect x="214.00" y="83.51" width="4.00" height="4.00" fill="#1f77b4"/><rect x="266.80" y="107.13" width="4.00" height="4.00" fill="#1f77b4"/><rect x="319.60" y="125.14" width="4.00" height="4.00" fill="#1f77b4"/><rect x="372.40" y="166.91" width="4.00" height="4.00" fill="#1f77b4"/><rect x="425.20" y="202.90" width="4.00" height="4.00" fill="#1f77b4"/><rect x="478.00" y="233.16" width="4.00" height="4.00" fill="#1f77b4"/><rect x="530.80" y="264.30" width="4.00" height="4.00" fill="#1f77b4"/><rect x="583.60" y="292.03" width="4.00" height="4.00" fill="#1f77b4"/><line x1="84.00" y1="48.00" x2="612.00" y2="48.00" stroke="#333" stroke-width="1"/><line x1="84.00" y1="422.00" x2="612.00" y2="422.00" stroke="#333" stroke-width="1"/><line x1="84.00" y1="48.00" x2="84.00" y2="422.00" stroke="#333" stroke-width="1"/><line x1="612.00" y1="48.00" x2="612.00" y2="422.00" stroke="#333" stroke-width="1"/><line x1="628.00" y1="60.00" x2="650.00" y2="60.00" stroke="#1f77b4" stroke-width="3"/><text x="656.00" y="64.00" font-family="sans-serif" font-size="12" text-anchor="start" fill="#222">simulated PDD</text><line x1="628.00" y1="82.00" x2="650.00" y2="82.00" stroke="#d62728" stroke-width="3"/><text x="656.00" y="86.00" font-family="sans-serif" font-size="12" text-anchor="start" fill="#222">exp(-μz)</text><text x="628.00" y="112.00" font-family="sans-serif" font-size="12" text-anchor="start" fill="#555">μ = 16.7 /m</text><text x="628.00" y="130.00" font-family="sans-serif" font-size="12" text-anchor="start" fill="#555">scatter lifts</text><text x="628.00" y="146.00" font-family="sans-serif" font-size="12" text-anchor="start" fill="#555">PDD at depth</text><text x="390.00" y="26.00" font-family="sans-serif" font-size="15" text-anchor="middle" fill="#111">Depth-dose (PDD): 100 keV photons in a water cube</text><text x="348.00" y="466.00" font-family="sans-serif" font-size="13" text-anchor="middle" fill="#111">Depth z (cm)</text><text x="20.00" y="235.00" transform="rotate(-90 20.00 235.00)" font-family="sans-serif" font-size="13" text-anchor="middle" fill="#111">Relative dose</text></svg>