<svg xmlns="http://www.w3.org/2000/svg" width="820" height="470" viewBox="0 0 820 470"><rect x="0" y="0" width="820" height="470" fill="white"/><rect x="70.00" y="376.40" width="60.50" height="36.10" fill="rgb(254,180,90)"/><rect x="70.00" y="340.80" width="60.50" height="36.10" fill="rgb(253,171,83)"/><rect x="70.00" y="305.20" width="60.50" height="36.10" fill="rgb(253,163,77)"/><rect x="70.00" y="269.60" width="60.50" height="36.10" fill="rgb(250,122,53)"/><rect x="70.00" y="234.00" width="60.50" height="36.10" fill="rgb(244,84,40)"/><rect x="70.00" y="198.40" width="60.50" height="36.10" fill="rgb(189,0,38)"/><rect x="70.00" y="162.80" width="60.50" height="36.10" fill="rgb(251,128,56)"/><rect x="70.00" y="127.20" width="60.50" height="36.10" fill="rgb(253,150,67)"/><rect x="70.00" y="91.60" width="60.50" height="36.10" fill="rgb(253,163,76)"/><rect x="70.00" y="56.00" width="60.50" height="36.10" fill="rgb(254,189,97)"/><rect x="130.00" y="376.40" width="60.50" height="36.10" fill="rgb(254,180,90)"/><rect x="130.00" y="340.80" width="60.50" height="36.10" fill="rgb(253,163,77)"/><rect x="130.00" y="305.20" width="60.50" height="36.10" fill="rgb(252,133,57)"/><rect x="130.00" y="269.60" width="60.50" height="36.10" fill="rgb(248,110,49)"/><rect x="130.00" y="234.00" width="60.50" height="36.10" fill="rgb(242,73,37)"/><rect x="130.00" y="198.40" width="60.50" height="36.10" fill="rgb(194,5,37)"/><rect x="130.00" y="162.80" width="60.50" height="36.10" fill="rgb(249,119,52)"/><rect x="130.00" y="127.20" width="60.50" height="36.10" fill="rgb(253,141,60)"/><rect x="130.00" y="91.60" width="60.50" height="36.10" fill="rgb(253,160,75)"/><rect x="130.00" y="56.00" width="60.50" height="36.10" fill="rgb(254,180,89)"/><rect x="190.00" y="376.40" width="60.50" height="36.10" fill="rgb(253,176,87)"/><rect x="190.00" y="340.80" width="60.50" height="36.10" fill="rgb(253,151,68)"/><rect x="190.00" y="305.20" width="60.50" height="36.10" fill="rgb(252,134,58)"/><rect x="190.00" y="269.60" width="60.50" height="36.10" fill="rgb(248,112,50)"/><rect x="190.00" y="234.00" width="60.50" height="36.10" fill="rgb(243,77,38)"/><rect x="190.00" y="198.40" width="60.50" height="36.10" fill="rgb(196,8,37)"/><rect x="190.00" y="162.80" width="60.50" height="36.10" fill="rgb(248,110,50)"/><rect x="190.00" y="127.20" width="60.50" height="36.10" fill="rgb(252,136,58)"/><rect x="190.00" y="91.60" width="60.50" height="36.10" fill="rgb(253,154,70)"/><rect x="190.00" y="56.00" width="60.50" height="36.10" fill="rgb(254,183,92)"/><rect x="250.00" y="376.40" width="60.50" height="36.10" fill="rgb(254,184,93)"/><rect x="250.00" y="340.80" width="60.50" height="36.10" fill="rgb(253,147,65)"/><rect x="250.00" y="305.20" width="60.50" height="36.10" fill="rgb(251,127,55)"/><rect x="250.00" y="269.60" width="60.50" height="36.10" fill="rgb(248,107,48)"/><rect x="250.00" y="234.00" width="60.50" height="36.10" fill="rgb(241,68,35)"/><rect x="250.00" y="198.40" width="60.50" height="36.10" fill="rgb(202,15,37)"/><rect x="250.00" y="162.80" width="60.50" height="36.10" fill="rgb(248,110,49)"/><rect x="250.00" y="127.20" width="60.50" height="36.10" fill="rgb(252,132,57)"/><rect x="250.00" y="91.60" width="60.50" height="36.10" fill="rgb(253,153,69)"/><rect x="250.00" y="56.00" width="60.50" height="36.10" fill="rgb(253,170,82)"/><rect x="310.00" y="376.40" width="60.50" height="36.10" fill="rgb(254,191,98)"/><rect x="310.00" y="340.80" width="60.50" height="36.10" fill="rgb(253,156,72)"/><rect x="310.00" y="305.20" width="60.50" height="36.10" fill="rgb(252,134,58)"/><rect x="310.00" y="269.60" width="60.50" height="36.10" fill="rgb(247,105,48)"/><rect x="310.00" y="234.00" width="60.50" height="36.10" fill="rgb(242,75,37)"/><rect x="310.00" y="198.40" width="60.50" height="36.10" fill="rgb(204,17,36)"/><rect x="310.00" y="162.80" width="60.50" height="36.10" fill="rgb(247,106,48)"/><rect x="310.00" y="127.20" width="60.50" height="36.10" fill="rgb(251,130,56)"/><rect x="310.00" y="91.60" width="60.50" height="36.10" fill="rgb(253,149,66)"/><rect x="310.00" y="56.00" width="60.50" height="36.10" fill="rgb(253,170,82)"/><rect x="370.00" y="376.40" width="60.50" height="36.10" fill="rgb(253,172,83)"/><rect x="370.00" y="340.80" width="60.50" height="36.10" fill="rgb(253,155,71)"/><rect x="370.00" y="305.20" width="60.50" height="36.10" fill="rgb(253,142,61)"/><rect x="370.00" y="269.60" width="60.50" height="36.10" fill="rgb(249,115,51)"/><rect x="370.00" y="234.00" width="60.50" height="36.10" fill="rgb(244,82,40)"/><rect x="370.00" y="198.40" width="60.50" height="36.10" fill="rgb(209,23,36)"/><rect x="370.00" y="162.80" width="60.50" height="36.10" fill="rgb(248,107,48)"/><rect x="370.00" y="127.20" width="60.50" height="36.10" fill="rgb(251,126,55)"/><rect x="370.00" y="91.60" width="60.50" height="36.10" fill="rgb(253,158,73)"/><rect x="370.00" y="56.00" width="60.50" height="36.10" fill="rgb(254,183,92)"/><rect x="430.00" y="376.40" width="60.50" height="36.10" fill="rgb(254,186,94)"/><rect x="430.00" y="340.80" width="60.50" height="36.10" fill="rgb(253,139,59)"/><rect x="430.00" y="305.20" width="60.50" height="36.10" fill="rgb(251,131,57)"/><rect x="430.00" y="269.60" width="60.50" height="36.10" fill="rgb(251,127,55)"/><rect x="430.00" y="234.00" width="60.50" height="36.10" fill="rgb(246,94,44)"/><rect x="430.00" y="198.40" width="60.50" height="36.10" fill="rgb(216,31,35)"/><rect x="430.00" y="162.80" width="60.50" height="36.10" fill="rgb(249,115,51)"/><rect x="430.00" y="127.20" width="60.50" height="36.10" fill="rgb(252,134,58)"/><rect x="430.00" y="91.60" width="60.50" height="36.10" fill="rgb(253,151,68)"/><rect x="430.00" y="56.00" width="60.50" height="36.10" fill="rgb(253,162,76)"/><rect x="490.00" y="376.40" width="60.50" height="36.10" fill="rgb(253,177,88)"/><rect x="490.00" y="340.80" width="60.50" height="36.10" fill="rgb(253,158,73)"/><rect x="490.00" y="305.20" width="60.50" height="36.10" fill="rgb(252,134,57)"/><rect x="490.00" y="269.60" width="60.50" height="36.10" fill="rgb(251,127,55)"/><rect x="490.00" y="234.00" width="60.50" height="36.10" fill="rgb(246,94,44)"/><rect x="490.00" y="198.40" width="60.50" height="36.10" fill="rgb(222,38,34)"/><rect x="490.00" y="162.80" width="60.50" height="36.10" fill="rgb(250,121,53)"/><rect x="490.00" y="127.20" width="60.50" height="36.10" fill="rgb(252,136,58)"/><rect x="490.00" y="91.60" width="60.50" height="36.10" fill="rgb(253,163,77)"/><rect x="490.00" y="56.00" width="60.50" height="36.10" fill="rgb(253,176,87)"/><rect x="550.00" y="376.40" width="60.50" height="36.10" fill="rgb(253,174,85)"/><rect x="550.00" y="340.80" width="60.50" height="36.10" fill="rgb(253,176,87)"/><rect x="550.00" y="305.20" width="60.50" height="36.10" fill="rgb(253,143,61)"/><rect x="550.00" y="269.60" width="60.50" height="36.10" fill="rgb(252,135,58)"/><rect x="550.00" y="234.00" width="60.50" height="36.10" fill="rgb(248,112,50)"/><rect x="550.00" y="198.40" width="60.50" height="36.10" fill="rgb(225,42,34)"/><rect x="550.00" y="162.80" width="60.50" height="36.10" fill="rgb(252,137,58)"/><rect x="550.00" y="127.20" width="60.50" height="36.10" fill="rgb(253,154,70)"/><rect x="550.00" y="91.60" width="60.50" height="36.10" fill="rgb(253,155,71)"/><rect x="550.00" y="56.00" width="60.50" height="36.10" fill="rgb(254,181,91)"/><rect x="610.00" y="376.40" width="60.50" height="36.10" fill="rgb(254,191,98)"/><rect x="610.00" y="340.80" width="60.50" height="36.10" fill="rgb(253,169,82)"/><rect x="610.00" y="305.20" width="60.50" height="36.10" fill="rgb(253,155,70)"/><rect x="610.00" y="269.60" width="60.50" height="36.10" fill="rgb(253,146,64)"/><rect x="610.00" y="234.00" width="60.50" height="36.10" fill="rgb(249,115,51)"/><rect x="610.00" y="198.40" width="60.50" height="36.10" fill="rgb(232,50,33)"/><rect x="610.00" y="162.80" width="60.50" height="36.10" fill="rgb(253,140,60)"/><rect x="610.00" y="127.20" width="60.50" height="36.10" fill="rgb(253,166,79)"/><rect x="610.00" y="91.60" width="60.50" height="36.10" fill="rgb(253,176,86)"/><rect x="610.00" y="56.00" width="60.50" height="36.10" fill="rgb(254,183,92)"/><line x1="70.00" y1="56.00" x2="670.00" y2="56.00" stroke="#333" stroke-width="1"/><line x1="70.00" y1="412.00" x2="670.00" y2="412.00" stroke="#333" stroke-width="1"/><line x1="70.00" y1="56.00" x2="70.00" y2="412.00" stroke="#333" stroke-width="1"/><line x1="670.00" y1="56.00" x2="670.00" y2="412.00" stroke="#333" stroke-width="1"/><line x1="70.00" y1="234.00" x2="670.00" y2="234.00" stroke="#1f77b4" stroke-width="1"/><text x="74.00" y="230.00" font-family="sans-serif" font-size="11" text-anchor="start" fill="#1f77b4">beam axis</text><text x="70.00" y="430.00" font-family="sans-serif" font-size="12" text-anchor="middle" fill="#333">0</text><text x="190.00" y="430.00" font-family="sans-serif" font-size="12" text-anchor="middle" fill="#333">2</text><text x="310.00" y="430.00" font-family="sans-serif" font-size="12" text-anchor="middle" fill="#333">4</text><text x="430.00" y="430.00" font-family="sans-serif" font-size="12" text-anchor="middle" fill="#333">6</text><text x="550.00" y="430.00" font-family="sans-serif" font-size="12" text-anchor="middle" fill="#333">8</text><text x="670.00" y="430.00" font-family="sans-serif" font-size="12" text-anchor="middle" fill="#333">10</text><text x="62.00" y="416.00" font-family="sans-serif" font-size="11" text-anchor="end" fill="#333">-5</text><text x="62.00" y="238.00" font-family="sans-serif" font-size="11" text-anchor="end" fill="#333">0</text><text x="62.00" y="60.00" font-family="sans-serif" font-size="11" text-anchor="end" fill="#333">5</text><rect x="698.00" y="412.00" width="18.00" height="6.36" fill="rgb(255,255,204)"/><rect x="698.00" y="406.35" width="18.00" height="6.36" fill="rgb(255,253,199)"/><rect x="698.00" y="400.70" width="18.00" height="6.36" fill="rgb(255,250,193)"/><rect x="698.00" y="395.05" width="18.00" height="6.36" fill="rgb(255,248,188)"/><rect x="698.00" y="389.40" width="18.00" height="6.36" fill="rgb(255,245,182)"/><rect x="698.00" y="383.75" width="18.00" height="6.36" fill="rgb(255,243,177)"/><rect x="698.00" y="378.10" width="18.00" height="6.36" fill="rgb(255,241,171)"/><rect x="698.00" y="372.44" width="18.00" height="6.36" fill="rgb(255,238,166)"/><rect x="698.00" y="366.79" width="18.00" height="6.36" fill="rgb(254,236,160)"/><rect x="698.00" y="361.14" width="18.00" height="6.36" fill="rgb(254,233,155)"/><rect x="698.00" y="355.49" width="18.00" height="6.36" fill="rgb(254,231,149)"/><rect x="698.00" y="349.84" width="18.00" height="6.36" fill="rgb(254,228,144)"/><rect x="698.00" y="344.19" width="18.00" height="6.36" fill="rgb(254,226,138)"/><rect x="698.00" y="338.54" width="18.00" height="6.36" fill="rgb(254,224,133)"/><rect x="698.00" y="332.89" width="18.00" height="6.36" fill="rgb(254,221,128)"/><rect x="698.00" y="327.24" width="18.00" height="6.36" fill="rgb(254,219,122)"/><rect x="698.00" y="321.59" width="18.00" height="6.36" fill="rgb(254,216,117)"/><rect x="698.00" y="315.94" width="18.00" height="6.36" fill="rgb(254,211,113)"/><rect x="698.00" y="310.29" width="18.00" height="6.36" fill="rgb(254,206,110)"/><rect x="698.00" y="304.63" width="18.00" height="6.36" fill="rgb(254,201,106)"/><rect x="698.00" y="298.98" width="18.00" height="6.36" fill="rgb(254,196,102)"/><rect x="698.00" y="293.33" width="18.00" height="6.36" fill="rgb(254,192,99)"/><rect x="698.00" y="287.68" width="18.00" height="6.36" fill="rgb(254,187,95)"/><rect x="698.00" y="282.03" width="18.00" height="6.36" fill="rgb(254,182,91)"/><rect x="698.00" y="276.38" width="18.00" height="6.36" fill="rgb(253,177,88)"/><rect x="698.00" y="270.73" width="18.00" height="6.36" fill="rgb(253,172,84)"/><rect x="698.00" y="265.08" width="18.00" height="6.36" fill="rgb(253,168,80)"/><rect x="698.00" y="259.43" width="18.00" height="6.36" fill="rgb(253,163,77)"/><rect x="698.00" y="253.78" width="18.00" height="6.36" fill="rgb(253,158,73)"/><rect x="698.00" y="248.13" width="18.00" height="6.36" fill="rgb(253,153,69)"/><rect x="698.00" y="242.48" width="18.00" height="6.36" fill="rgb(253,148,66)"/><rect x="698.00" y="236.83" width="18.00" height="6.36" fill="rgb(253,143,62)"/><rect x="698.00" y="231.17" width="18.00" height="6.36" fill="rgb(253,138,59)"/><rect x="698.00" y="225.52" width="18.00" height="6.36" fill="rgb(252,133,57)"/><rect x="698.00" y="219.87" width="18.00" height="6.36" fill="rgb(251,128,56)"/><rect x="698.00" y="214.22" width="18.00" height="6.36" fill="rgb(250,123,54)"/><rect x="698.00" y="208.57" width="18.00" height="6.36" fill="rgb(249,118,52)"/><rect x="698.00" y="202.92" width="18.00" height="6.36" fill="rgb(248,112,50)"/><rect x="698.00" y="197.27" width="18.00" height="6.36" fill="rgb(248,107,48)"/><rect x="698.00" y="191.62" width="18.00" height="6.36" fill="rgb(247,102,47)"/><rect x="698.00" y="185.97" width="18.00" height="6.36" fill="rgb(246,97,45)"/><rect x="698.00" y="180.32" width="18.00" height="6.36" fill="rgb(245,92,43)"/><rect x="698.00" y="174.67" width="18.00" height="6.36" fill="rgb(244,86,41)"/><rect x="698.00" y="169.02" width="18.00" height="6.36" fill="rgb(244,81,40)"/><rect x="698.00" y="163.37" width="18.00" height="6.36" fill="rgb(243,76,38)"/><rect x="698.00" y="157.71" width="18.00" height="6.36" fill="rgb(242,71,36)"/><rect x="698.00" y="152.06" width="18.00" height="6.36" fill="rgb(241,66,34)"/><rect x="698.00" y="146.41" width="18.00" height="6.36" fill="rgb(240,60,32)"/><rect x="698.00" y="140.76" width="18.00" height="6.36" fill="rgb(238,56,32)"/><rect x="698.00" y="135.11" width="18.00" height="6.36" fill="rgb(234,52,33)"/><rect x="698.00" y="129.46" width="18.00" height="6.36" fill="rgb(231,49,33)"/><rect x="698.00" y="123.81" width="18.00" height="6.36" fill="rgb(228,45,33)"/><rect x="698.00" y="118.16" width="18.00" height="6.36" fill="rgb(225,41,34)"/><rect x="698.00" y="112.51" width="18.00" height="6.36" fill="rgb(221,37,34)"/><rect x="698.00" y="106.86" width="18.00" height="6.36" fill="rgb(218,34,35)"/><rect x="698.00" y="101.21" width="18.00" height="6.36" fill="rgb(215,30,35)"/><rect x="698.00" y="95.56" width="18.00" height="6.36" fill="rgb(212,26,35)"/><rect x="698.00" y="89.90" width="18.00" height="6.36" fill="rgb(208,22,36)"/><rect x="698.00" y="84.25" width="18.00" height="6.36" fill="rgb(205,19,36)"/><rect x="698.00" y="78.60" width="18.00" height="6.36" fill="rgb(202,15,36)"/><rect x="698.00" y="72.95" width="18.00" height="6.36" fill="rgb(199,11,37)"/><rect x="698.00" y="67.30" width="18.00" height="6.36" fill="rgb(195,7,37)"/><rect x="698.00" y="61.65" width="18.00" height="6.36" fill="rgb(192,4,38)"/><rect x="698.00" y="56.00" width="18.00" height="6.36" fill="rgb(189,0,38)"/><line x1="698.00" y1="56.00" x2="698.00" y2="412.00" stroke="#333" stroke-width="1"/><line x1="716.00" y1="56.00" x2="716.00" y2="412.00" stroke="#333" stroke-width="1"/><line x1="716.00" y1="412.00" x2="720.00" y2="412.00" stroke="#333" stroke-width="1"/><text x="723.00" y="416.00" font-family="sans-serif" font-size="11" text-anchor="start" fill="#333">1e-3</text><line x1="716.00" y1="293.33" x2="720.00" y2="293.33" stroke="#333" stroke-width="1"/><text x="723.00" y="297.33" font-family="sans-serif" font-size="11" text-anchor="start" fill="#333">1e-2</text><line x1="716.00" y1="174.67" x2="720.00" y2="174.67" stroke="#333" stroke-width="1"/><text x="723.00" y="178.67" font-family="sans-serif" font-size="11" text-anchor="start" fill="#333">1e-1</text><line x1="716.00" y1="56.00" x2="720.00" y2="56.00" stroke="#333" stroke-width="1"/><text x="723.00" y="60.00" font-family="sans-serif" font-size="11" text-anchor="start" fill="#333">1e0</text><text x="707.00" y="48.00" font-family="sans-serif" font-size="11" text-anchor="middle" fill="#333">rel.</text><text x="410.00" y="26.00" font-family="sans-serif" font-size="15" text-anchor="middle" fill="#111">Dose distribution in the water cube (beam-axis plane)</text><text x="370.00" y="456.00" font-family="sans-serif" font-size="13" text-anchor="middle" fill="#111">Depth z (cm)</text><text x="20.00" y="234.00" transform="rotate(-90 20.00 234.00)" font-family="sans-serif" font-size="13" text-anchor="middle" fill="#111">Lateral x (cm)</text></svg>