<svg xmlns="http://www.w3.org/2000/svg" width="780" height="470" viewBox="0 0 780 470"><rect x="0" y="0" width="780" height="470" fill="white"/><line x1="84.00" y1="412.00" x2="612.00" y2="412.00" stroke="#e8e8e8" stroke-width="1"/><text x="76.00" y="416.00" font-family="sans-serif" font-size="11" text-anchor="end" fill="#333">0.0</text><line x1="84.00" y1="340.00" x2="612.00" y2="340.00" stroke="#e8e8e8" stroke-width="1"/><text x="76.00" y="344.00" font-family="sans-serif" font-size="11" text-anchor="end" fill="#333">0.2</text><line x1="84.00" y1="268.00" x2="612.00" y2="268.00" stroke="#e8e8e8" stroke-width="1"/><text x="76.00" y="272.00" font-family="sans-serif" font-size="11" text-anchor="end" fill="#333">0.4</text><line x1="84.00" y1="196.00" x2="612.00" y2="196.00" stroke="#e8e8e8" stroke-width="1"/><text x="76.00" y="200.00" font-family="sans-serif" font-size="11" text-anchor="end" fill="#333">0.6</text><line x1="84.00" y1="124.00" x2="612.00" y2="124.00" stroke="#e8e8e8" stroke-width="1"/><text x="76.00" y="128.00" font-family="sans-serif" font-size="11" text-anchor="end" fill="#333">0.8</text><line x1="84.00" y1="52.00" x2="612.00" y2="52.00" stroke="#e8e8e8" stroke-width="1"/><text x="76.00" y="56.00" font-family="sans-serif" font-size="11" text-anchor="end" fill="#333">1.0</text><line x1="84.00" y1="52.00" x2="84.00" y2="412.00" stroke="#e8e8e8" stroke-width="1"/><text x="84.00" y="430.00" font-family="sans-serif" font-size="12" text-anchor="middle" fill="#333">-5.0</text><line x1="216.00" y1="52.00" x2="216.00" y2="412.00" stroke="#e8e8e8" stroke-width="1"/><text x="216.00" y="430.00" font-family="sans-serif" font-size="12" text-anchor="middle" fill="#333">-2.5</text><line x1="348.00" y1="52.00" x2="348.00" y2="412.00" stroke="#e8e8e8" stroke-width="1"/><text x="348.00" y="430.00" font-family="sans-serif" font-size="12" text-anchor="middle" fill="#333">0.0</text><line x1="480.00" y1="52.00" x2="480.00" y2="412.00" stroke="#e8e8e8" stroke-width="1"/><text x="480.00" y="430.00" font-family="sans-serif" font-size="12" text-anchor="middle" fill="#333">2.5</text><line x1="612.00" y1="52.00" x2="612.00" y2="412.00" stroke="#e8e8e8" stroke-width="1"/><text x="612.00" y="430.00" font-family="sans-serif" font-size="12" text-anchor="middle" fill="#333">5.0</text><polyline points="110.40,407.29 163.20,406.26 216.00,405.11 268.80,394.98 321.60,373.96 374.40,52.00 427.20,397.15 480.00,402.68 532.80,405.03 585.60,408.17 " fill="none" stroke="#1f77b4" stroke-width="2"/><rect x="108.40" y="405.29" width="4.00" height="4.00" fill="#1f77b4"/><rect x="161.20" y="404.26" width="4.00" height="4.00" fill="#1f77b4"/><rect x="214.00" y="403.11" width="4.00" height="4.00" fill="#1f77b4"/><rect x="266.80" y="392.98" width="4.00" height="4.00" fill="#1f77b4"/><rect x="319.60" y="371.96" width="4.00" height="4.00" fill="#1f77b4"/><rect x="372.40" y="50.00" width="4.00" height="4.00" fill="#1f77b4"/><rect x="425.20" y="395.15" width="4.00" height="4.00" fill="#1f77b4"/><rect x="478.00" y="400.68" width="4.00" height="4.00" fill="#1f77b4"/><rect x="530.80" y="403.03" width="4.00" height="4.00" fill="#1f77b4"/><rect x="583.60" y="406.17" width="4.00" height="4.00" fill="#1f77b4"/><line x1="628.00" y1="64.00" x2="650.00" y2="64.00" stroke="#1f77b4" stroke-width="3"/><text x="656.00" y="68.00" font-family="sans-serif" font-size="12" text-anchor="start" fill="#222">z = 0-1 cm</text><polyline points="110.40,400.77 163.20,395.56 216.00,389.96 268.80,373.00 321.60,333.65 374.40,52.00 427.20,365.87 480.00,381.14 532.80,396.55 585.60,403.36 " fill="none" stroke="#2ca02c" stroke-width="2"/><rect x="108.40" y="398.77" width="4.00" height="4.00" fill="#2ca02c"/><rect x="161.20" y="393.56" width="4.00" height="4.00" fill="#2ca02c"/><rect x="214.00" y="387.96" width="4.00" height="4.00" fill="#2ca02c"/><rect x="266.80" y="371.00" width="4.00" height="4.00" fill="#2ca02c"/><rect x="319.60" y="331.65" width="4.00" height="4.00" fill="#2ca02c"/><rect x="372.40" y="50.00" width="4.00" height="4.00" fill="#2ca02c"/><rect x="425.20" y="363.87" width="4.00" height="4.00" fill="#2ca02c"/><rect x="478.00" y="379.14" width="4.00" height="4.00" fill="#2ca02c"/><rect x="530.80" y="394.55" width="4.00" height="4.00" fill="#2ca02c"/><rect x="583.60" y="401.36" width="4.00" height="4.00" fill="#2ca02c"/><line x1="628.00" y1="86.00" x2="650.00" y2="86.00" stroke="#2ca02c" stroke-width="3"/><text x="656.00" y="90.00" font-family="sans-serif" font-size="12" text-anchor="start" fill="#222">z = 5-6 cm</text><polyline points="110.40,393.70 163.20,394.40 216.00,374.77 268.80,367.88 321.60,339.60 374.40,52.00 427.20,369.30 480.00,383.36 532.80,383.74 585.60,396.37 " fill="none" stroke="#d62728" stroke-width="2"/><rect x="108.40" y="391.70" width="4.00" height="4.00" fill="#d62728"/><rect x="161.20" y="392.40" width="4.00" height="4.00" fill="#d62728"/><rect x="214.00" y="372.77" width="4.00" height="4.00" fill="#d62728"/><rect x="266.80" y="365.88" width="4.00" height="4.00" fill="#d62728"/><rect x="319.60" y="337.60" width="4.00" height="4.00" fill="#d62728"/><rect x="372.40" y="50.00" width="4.00" height="4.00" fill="#d62728"/><rect x="425.20" y="367.30" width="4.00" height="4.00" fill="#d62728"/><rect x="478.00" y="381.36" width="4.00" height="4.00" fill="#d62728"/><rect x="530.80" y="381.74" width="4.00" height="4.00" fill="#d62728"/><rect x="583.60" y="394.37" width="4.00" height="4.00" fill="#d62728"/><line x1="628.00" y1="108.00" x2="650.00" y2="108.00" stroke="#d62728" stroke-width="3"/><text x="656.00" y="112.00" font-family="sans-serif" font-size="12" text-anchor="start" fill="#222">z = 8-9 cm</text><text x="628.00" y="142.00" font-family="sans-serif" font-size="12" text-anchor="start" fill="#555">each profile</text><text x="628.00" y="158.00" font-family="sans-serif" font-size="12" text-anchor="start" fill="#555">normalized to</text><text x="628.00" y="174.00" font-family="sans-serif" font-size="12" text-anchor="start" fill="#555">its own axis</text><line x1="84.00" y1="52.00" x2="612.00" y2="52.00" stroke="#333" stroke-width="1"/><line x1="84.00" y1="412.00" x2="612.00" y2="412.00" stroke="#333" stroke-width="1"/><line x1="84.00" y1="52.00" x2="84.00" y2="412.00" stroke="#333" stroke-width="1"/><line x1="612.00" y1="52.00" x2="612.00" y2="412.00" stroke="#333" stroke-width="1"/><text x="390.00" y="26.00" font-family="sans-serif" font-size="15" text-anchor="middle" fill="#111">Lateral dose profiles vs depth (scatter broadening)</text><text x="348.00" y="456.00" font-family="sans-serif" font-size="13" text-anchor="middle" fill="#111">Lateral position x (cm)</text><text x="20.00" y="232.00" transform="rotate(-90 20.00 232.00)" font-family="sans-serif" font-size="13" text-anchor="middle" fill="#111">Relative dose</text></svg>