<svg xmlns="http://www.w3.org/2000/svg" width="780" height="480" viewBox="0 0 780 480"><rect x="0" y="0" width="780" height="480" fill="white"/><line x1="84.00" y1="422.00" x2="740.00" y2="422.00" stroke="#e8e8e8" stroke-width="1"/><text x="76.00" y="426.00" font-family="sans-serif" font-size="11" text-anchor="end" fill="#333">0</text><line x1="84.00" y1="347.20" x2="740.00" y2="347.20" stroke="#e8e8e8" stroke-width="1"/><text x="76.00" y="351.20" font-family="sans-serif" font-size="11" text-anchor="end" fill="#333">15243</text><line x1="84.00" y1="272.40" x2="740.00" y2="272.40" stroke="#e8e8e8" stroke-width="1"/><text x="76.00" y="276.40" font-family="sans-serif" font-size="11" text-anchor="end" fill="#333">30486</text><line x1="84.00" y1="197.60" x2="740.00" y2="197.60" stroke="#e8e8e8" stroke-width="1"/><text x="76.00" y="201.60" font-family="sans-serif" font-size="11" text-anchor="end" fill="#333">45730</text><line x1="84.00" y1="122.80" x2="740.00" y2="122.80" stroke="#e8e8e8" stroke-width="1"/><text x="76.00" y="126.80" font-family="sans-serif" font-size="11" text-anchor="end" fill="#333">60973</text><line x1="84.00" y1="48.00" x2="740.00" y2="48.00" stroke="#e8e8e8" stroke-width="1"/><text x="76.00" y="52.00" font-family="sans-serif" font-size="11" text-anchor="end" fill="#333">76216</text><rect x="85.00" y="48.00" width="34.44" height="374.00" fill="#1f77b4"/><rect x="121.44" y="172.29" width="34.44" height="249.71" fill="#1f77b4"/><rect x="157.89" y="240.13" width="34.44" height="181.87" fill="#1f77b4"/><rect x="194.33" y="282.77" width="34.44" height="139.23" fill="#1f77b4"/><rect x="230.78" y="312.70" width="34.44" height="109.30" fill="#1f77b4"/><rect x="267.22" y="333.99" width="34.44" height="88.01" fill="#1f77b4"/><rect x="303.67" y="351.10" width="34.44" height="70.90" fill="#1f77b4"/><rect x="340.11" y="363.98" width="34.44" height="58.02" fill="#1f77b4"/><rect x="376.56" y="375.23" width="34.44" height="46.77" fill="#1f77b4"/><rect x="413.00" y="383.22" width="34.44" height="38.78" fill="#1f77b4"/><rect x="449.44" y="390.46" width="34.44" height="31.54" fill="#1f77b4"/><rect x="485.89" y="396.55" width="34.44" height="25.45" fill="#1f77b4"/><rect x="522.33" y="402.65" width="34.44" height="19.35" fill="#1f77b4"/><rect x="558.78" y="407.12" width="34.44" height="14.88" fill="#1f77b4"/><rect x="595.22" y="410.74" width="34.44" height="11.26" fill="#1f77b4"/><rect x="631.67" y="414.62" width="34.44" height="7.38" fill="#1f77b4"/><rect x="668.11" y="417.72" width="34.44" height="4.28" fill="#1f77b4"/><rect x="704.56" y="420.62" width="34.44" height="1.38" fill="#1f77b4"/><text x="84.00" y="440.00" font-family="sans-serif" font-size="12" text-anchor="middle" fill="#333">10</text><text x="156.89" y="440.00" font-family="sans-serif" font-size="12" text-anchor="middle" fill="#333">20</text><text x="229.78" y="440.00" font-family="sans-serif" font-size="12" text-anchor="middle" fill="#333">30</text><text x="302.67" y="440.00" font-family="sans-serif" font-size="12" text-anchor="middle" fill="#333">40</text><text x="375.56" y="440.00" font-family="sans-serif" font-size="12" text-anchor="middle" fill="#333">50</text><text x="448.44" y="440.00" font-family="sans-serif" font-size="12" text-anchor="middle" fill="#333">60</text><text x="521.33" y="440.00" font-family="sans-serif" font-size="12" text-anchor="middle" fill="#333">70</text><text x="594.22" y="440.00" font-family="sans-serif" font-size="12" text-anchor="middle" fill="#333">80</text><text x="667.11" y="440.00" font-family="sans-serif" font-size="12" text-anchor="middle" fill="#333">90</text><text x="740.00" y="440.00" font-family="sans-serif" font-size="12" text-anchor="middle" fill="#333">100</text><line x1="221.21" y1="48.00" x2="221.21" y2="422.00" stroke="#d62728" stroke-width="1.6"/><text x="226.21" y="62.00" font-family="sans-serif" font-size="12" text-anchor="start" fill="#d62728">mean 29 keV</text><line x1="84.00" y1="48.00" x2="740.00" y2="48.00" stroke="#333" stroke-width="1"/><line x1="84.00" y1="422.00" x2="740.00" y2="422.00" stroke="#333" stroke-width="1"/><line x1="84.00" y1="48.00" x2="84.00" y2="422.00" stroke="#333" stroke-width="1"/><line x1="740.00" y1="48.00" x2="740.00" y2="422.00" stroke="#333" stroke-width="1"/><text x="390.00" y="26.00" font-family="sans-serif" font-size="16" text-anchor="middle" fill="#111">100 kVp bremsstrahlung spectrum (Kramers' law)</text><text x="412.00" y="466.00" font-family="sans-serif" font-size="13" text-anchor="middle" fill="#111">Photon energy (keV)</text><text x="20.00" y="235.00" transform="rotate(-90 20.00 235.00)" font-family="sans-serif" font-size="13" text-anchor="middle" fill="#111">Sampled photons</text></svg>