<svg xmlns="http://www.w3.org/2000/svg" viewBox="0 0 900 480" width="900" height="480" role="img" aria-label="Polypus crate graph"><style>
rect{stroke-width:1.5}
.n{fill:#f6f8fa;stroke:#d1d9e0}.p{fill:#ddf4ff;stroke:#54aeff}.b{fill:#dafbe1;stroke:#4ac26b}
text{fill:#1f2328;text-anchor:middle;font-family:-apple-system,BlinkMacSystemFont,"Segoe UI",Helvetica,Arial,sans-serif}
.t{font-size:14px;font-weight:600}.s{font-size:12px;fill:#59636e}
.a{stroke:#8c959f;stroke-width:1.5}.ah{fill:#8c959f}
@media (prefers-color-scheme:dark){.n{fill:#151b23;stroke:#3d444d}.p{fill:#0c2d6b;stroke:#1f6feb}.b{fill:#0f3d1f;stroke:#2ea043}text{fill:#e6edf3}.s{fill:#9198a1}.a{stroke:#656c76}.ah{fill:#656c76}}
</style><defs><marker id="m" viewBox="0 0 10 10" refX="9" refY="5" markerWidth="7" markerHeight="7" orient="auto"><path d="M0,0L10,5L0,10z" class="ah"/></marker></defs><line x1="450.0" y1="60" x2="450.0" y2="88" class="a" marker-end="url(#m)"/><line x1="450.0" y1="140" x2="450.0" y2="168" class="a" marker-end="url(#m)"/><line x1="450.0" y1="220" x2="305.0" y2="248" class="a" marker-end="url(#m)"/><line x1="450.0" y1="220" x2="595.0" y2="248" class="a" marker-end="url(#m)"/><line x1="305.0" y1="300" x2="125.0" y2="338" class="a" marker-end="url(#m)"/><line x1="305.0" y1="300" x2="355.0" y2="338" class="a" marker-end="url(#m)"/><line x1="305.0" y1="300" x2="585.0" y2="338" class="a" marker-end="url(#m)"/><line x1="355.0" y1="390" x2="355.0" y2="418" class="a" marker-end="url(#m)"/><rect class="p" x="345" y="10" width="210" height="50" rx="8"/><text x="450.0" y="31.5" class="t">polypus</text><text x="450.0" y="48.5" class="s">Python API, PyO3</text><rect class="p" x="345" y="90" width="210" height="50" rx="8"/><text x="450.0" y="111.5" class="t">polypus-evaluation</text><text x="450.0" y="128.5" class="s">oracles, PyO3</text><rect class="n" x="345" y="170" width="210" height="50" rx="8"/><text x="450.0" y="191.5" class="t">polypus-orchestration</text><text x="450.0" y="208.5" class="s">flows, scheduler</text><rect class="p" x="200" y="250" width="210" height="50" rx="8"/><text x="305.0" y="271.5" class="t">polypus-infrastructure</text><text x="305.0" y="288.5" class="s">backends, planner, PyO3</text><rect class="n" x="490" y="250" width="210" height="50" rx="8"/><text x="595.0" y="271.5" class="t">polypus-optimizers</text><text x="595.0" y="288.5" class="s">DE, PSO, QNG</text><rect class="n" x="20" y="340" width="210" height="50" rx="8"/><text x="125.0" y="361.5" class="t">polypus-backend</text><text x="125.0" y="378.5" class="s">backend trait</text><rect class="n" x="250" y="340" width="210" height="50" rx="8"/><text x="355.0" y="361.5" class="t">polypus-sim</text><text x="355.0" y="378.5" class="s">statevector</text><rect class="n" x="480" y="340" width="210" height="50" rx="8"/><text x="585.0" y="361.5" class="t">polypus-observable</text><text x="585.0" y="378.5" class="s">QUBO, Ising</text><rect class="n" x="250" y="420" width="210" height="50" rx="8"/><text x="355.0" y="441.5" class="t">polypus-circuit</text><text x="355.0" y="458.5" class="s">IR, QASM, QIR</text><rect class="p" x="620" y="425" width="14" height="14" rx="3"/><text x="640" y="437" class="s" style="text-anchor:start">links Python (PyO3)</text><rect class="n" x="620" y="450" width="14" height="14" rx="3"/><text x="640" y="462" class="s" style="text-anchor:start">pure Rust</text></svg>
